<?xml version="1.0" encoding="UTF-8" standalone="no"?>
<!DOCTYPE svg PUBLIC "-//W3C//DTD SVG 1.1//EN"
 "http://www.w3.org/Graphics/SVG/1.1/DTD/svg11.dtd">
<!-- Generated by graphviz version 15.1.1 (20260805.0921)
 -->
<!-- Title: Persistence, Operational Audit, and External Projections Pages: 1 -->
<svg width="2369pt" height="768pt"
 viewBox="11.00 11.00 2358.00 757.00" xmlns="http://www.w3.org/2000/svg" xmlns:xlink="http://www.w3.org/1999/xlink">
<g id="graph0" class="graph" transform="scale(1 1) rotate(0) translate(36 731.75)">
<title>Persistence, Operational Audit, and External Projections</title>
<polygon fill="#0b1118" stroke="none" points="-25.2,25.2 -25.2,-720.95 2322.35,-720.95 2322.35,25.2 -25.2,25.2"/>
<text xml:space="preserve" text-anchor="start" x="10" y="-671.75" font-family="Helvetica,sans-Serif" font-weight="bold" font-size="20.00" fill="#f2f6fa">Persistence, Operational Audit, and External Projections</text>
<text xml:space="preserve" text-anchor="start" x="10" y="-655.3" font-family="Helvetica,sans-Serif" font-weight="bold" font-size="11.00" fill="#ffc1bb">OFFLINE DOCUMENTATION — NO CURRENT ORDER SUBMISSION OR EXECUTION</text>
<text xml:space="preserve" text-anchor="start" x="10" y="-640.5" font-family="Helvetica,sans-Serif" font-size="10.00" fill="#c7d2dd">PROFILE: profile.example · REVIEW: PROPOSED · MANIFEST SCHEMA: 1 · COMPONENTS: 11 · CAPABILITIES: 1 · FLOWS: 13</text>
<text xml:space="preserve" text-anchor="start" x="10" y="-626" font-family="Helvetica,sans-Serif" font-size="9.00" fill="#c7d2dd">CHECKOUT EVIDENCE: af25f09ae80403b0f5421157cfc54cc85a8e5d6c</text>
<polygon fill="#164c3e" stroke="none" points="18,-594 18,-611.75 70.25,-611.75 70.25,-594 18,-594"/>
<polygon fill="none" stroke="#78a9f5" points="18,-594 18,-611.75 70.25,-611.75 70.25,-594 18,-594"/>
<text xml:space="preserve" text-anchor="start" x="22" y="-600.2" font-family="Helvetica,sans-Serif" font-weight="bold" font-size="9.00" fill="#eef5ff">ENABLED</text>
<polygon fill="#5a3419" stroke="none" points="78.25,-594 78.25,-611.75 135,-611.75 135,-594 78.25,-594"/>
<polygon fill="none" stroke="#f0a45d" points="78.25,-594 78.25,-611.75 135,-611.75 135,-594 78.25,-594"/>
<text xml:space="preserve" text-anchor="start" x="82.25" y="-600.2" font-family="Helvetica,sans-Serif" font-weight="bold" font-size="9.00" fill="#fff4e8">EXTERNAL</text>
<text xml:space="preserve" text-anchor="start" x="143" y="-600.2" font-family="Helvetica,sans-Serif" font-weight="bold" font-size="9.00" fill="#b9ddf0">DATA · SOLID/DASHED</text>
<text xml:space="preserve" text-anchor="start" x="249.25" y="-600.2" font-family="Helvetica,sans-Serif" font-weight="bold" font-size="9.00" fill="#a5e3cd">PERSIST · SOLID</text>
<text xml:space="preserve" text-anchor="start" x="329.25" y="-600.2" font-family="Helvetica,sans-Serif" font-weight="bold" font-size="9.00" fill="#e8dfaf">PROJECT · DOTTED</text>
<text xml:space="preserve" text-anchor="start" x="423.5" y="-600.2" font-family="Helvetica,sans-Serif" font-weight="bold" font-size="9.00" fill="#ffc1bb">FAILURE/RELEASE · DASHED</text>
<text xml:space="preserve" text-anchor="start" x="560.5" y="-600.25" font-family="Helvetica,sans-Serif" font-size="9.00" fill="#c7d2dd">R = REQUIRED · O = OPTIONAL</text>
<g id="boundary.persistence" class="cluster">
<title>cluster_Operational persistence</title>
<path fill="#111a24" stroke="#6fd0ac" d="M1997.12,-98C1997.12,-98 2277.15,-98 2277.15,-98 2283.15,-98 2289.15,-104 2289.15,-110 2289.15,-110 2289.15,-257 2289.15,-257 2289.15,-263 2283.15,-269 2277.15,-269 2277.15,-269 1997.12,-269 1997.12,-269 1991.12,-269 1985.12,-263 1985.12,-257 1985.12,-257 1985.12,-110 1985.12,-110 1985.12,-104 1991.12,-98 1997.12,-98"/>
<text xml:space="preserve" text-anchor="start" x="1993.12" y="-255.55" font-family="Helvetica,sans-Serif" font-weight="bold" font-size="11.00" fill="#d6e2ea">OPERATIONAL PERSISTENCE</text>
<text xml:space="preserve" text-anchor="start" x="2045.62" y="-247.4" font-family="Helvetica,sans-Serif" font-size="8.00" fill="#c7d2dd">PERSISTENCE</text>
</g>
<g id="boundary.process" class="cluster">
<title>cluster_Markeitech V2 process</title>
<path fill="#0e1721" stroke="#566b7d" stroke-width="1.4" d="M20,-8C20,-8 1845.37,-8 1845.37,-8 1851.37,-8 1857.37,-14 1857.37,-20 1857.37,-20 1857.37,-560 1857.37,-560 1857.37,-566 1851.37,-572 1845.37,-572 1845.37,-572 20,-572 20,-572 14,-572 8,-566 8,-560 8,-560 8,-20 8,-20 8,-14 14,-8 20,-8"/>
<text xml:space="preserve" text-anchor="start" x="16" y="-558.55" font-family="Helvetica,sans-Serif" font-weight="bold" font-size="11.00" fill="#d6e2ea">MARKEITECH V2 PROCESS</text>
<text xml:space="preserve" text-anchor="start" x="71.12" y="-550.4" font-family="Helvetica,sans-Serif" font-size="8.00" fill="#c7d2dd">PROCESS</text>
</g>
<g id="boundary.intelligence" class="cluster">
<title>cluster_Processing, metrics, intelligence, and state</title>
<path fill="#111a24" stroke="#43d9ae" d="M40,-28C40,-28 326.03,-28 326.03,-28 332.03,-28 338.03,-34 338.03,-40 338.03,-40 338.03,-155 338.03,-155 338.03,-161 332.03,-167 326.03,-167 326.03,-167 40,-167 40,-167 34,-167 28,-161 28,-155 28,-155 28,-40 28,-40 28,-34 34,-28 40,-28"/>
<text xml:space="preserve" text-anchor="start" x="36" y="-153.55" font-family="Helvetica,sans-Serif" font-weight="bold" font-size="11.00" fill="#d6e2ea">PROCESSING, METRICS, INTELLIGENCE, AND STATE</text>
<text xml:space="preserve" text-anchor="start" x="144" y="-145.4" font-family="Helvetica,sans-Serif" font-size="8.00" fill="#c7d2dd">ACTOR_RUNTIME</text>
</g>
<g id="boundary.system" class="cluster">
<title>cluster_System and infrastructure actors</title>
<path fill="#111a24" stroke="#43d9ae" d="M40,-187C40,-187 820.81,-187 820.81,-187 826.81,-187 832.81,-193 832.81,-199 832.81,-199 832.81,-513 832.81,-513 832.81,-519 826.81,-525 820.81,-525 820.81,-525 40,-525 40,-525 34,-525 28,-519 28,-513 28,-513 28,-199 28,-199 28,-193 34,-187 40,-187"/>
<text xml:space="preserve" text-anchor="start" x="36" y="-511.55" font-family="Helvetica,sans-Serif" font-weight="bold" font-size="11.00" fill="#d6e2ea">SYSTEM AND INFRASTRUCTURE ACTORS</text>
<text xml:space="preserve" text-anchor="start" x="115.88" y="-503.4" font-family="Helvetica,sans-Serif" font-size="8.00" fill="#c7d2dd">ACTOR_RUNTIME</text>
</g>
<g id="boundary.workers" class="cluster">
<title>cluster_In&#45;process workers and queues</title>
<path fill="#111a24" stroke="#78a9f5" d="M996.56,-137C996.56,-137 1825.37,-137 1825.37,-137 1831.37,-137 1837.37,-143 1837.37,-149 1837.37,-149 1837.37,-380 1837.37,-380 1837.37,-386 1831.37,-392 1825.37,-392 1825.37,-392 996.56,-392 996.56,-392 990.56,-392 984.56,-386 984.56,-380 984.56,-380 984.56,-149 984.56,-149 984.56,-143 990.56,-137 996.56,-137"/>
<text xml:space="preserve" text-anchor="start" x="992.56" y="-378.55" font-family="Helvetica,sans-Serif" font-weight="bold" font-size="11.00" fill="#d6e2ea">IN&#45;PROCESS WORKERS AND QUEUES</text>
<text xml:space="preserve" text-anchor="start" x="1078.81" y="-370.4" font-family="Helvetica,sans-Serif" font-size="8.00" fill="#c7d2dd">WORKER</text>
</g>
<g id="boundary.projections" class="cluster">
<title>cluster_External projections and operator</title>
<path fill="#111a24" stroke="#d7c77b" d="M1997.12,-269C1997.12,-269 2277.15,-269 2277.15,-269 2283.15,-269 2289.15,-275 2289.15,-281 2289.15,-281 2289.15,-512 2289.15,-512 2289.15,-518 2283.15,-524 2277.15,-524 2277.15,-524 1997.12,-524 1997.12,-524 1991.12,-524 1985.12,-518 1985.12,-512 1985.12,-512 1985.12,-281 1985.12,-281 1985.12,-275 1991.12,-269 1997.12,-269"/>
<text xml:space="preserve" text-anchor="start" x="1993.12" y="-510.55" font-family="Helvetica,sans-Serif" font-weight="bold" font-size="11.00" fill="#d6e2ea">EXTERNAL PROJECTIONS AND OPERATOR</text>
<text xml:space="preserve" text-anchor="start" x="2084.62" y="-502.4" font-family="Helvetica,sans-Serif" font-size="8.00" fill="#c7d2dd">PROJECTION</text>
</g>
<!-- actor.session&#45;state&#45;&gt;actor.operational&#45;persistence -->
<g id="edge.calendar&#45;transition&#45;persistence" class="edge">
<title>actor.session&#45;state&#45;&gt;actor.operational&#45;persistence</title>
<g id="a_edge.calendar&#45;transition&#45;persistence"><a xlink:title="edge.calendar&#45;transition&#45;persistence">
<path fill="none" stroke="#6fd0ac" stroke-width="1.7" d="M321.21,-126.7C372.19,-144.39 429.87,-166.62 480.28,-191.5 520.52,-211.36 562.88,-238.01 596.78,-260.91"/>
<polygon fill="#6fd0ac" stroke="#6fd0ac" stroke-width="1.7" points="603.05,-265.17 594.41,-263.65 601.26,-264.38 596.24,-260.97 596.43,-260.68 596.63,-260.39 601.65,-263.8 598.46,-257.7 603.05,-265.17"/>
</a>
</g>
<text xml:space="preserve" text-anchor="start" x="358.03" y="-205.75" font-family="Sans-Serif" font-size="10.00" fill="#a5e3cd">R · PERSIST — Canonical</text>
<text xml:space="preserve" text-anchor="start" x="377.9" y="-194.5" font-family="Sans-Serif" font-size="10.00" fill="#a5e3cd">calendar transition</text>
</g>
<!-- actor.discord&#45;health&#45;&gt;queue.discord -->
<g id="edge.discord&#45;queue" class="edge">
<title>actor.discord&#45;health&#45;&gt;queue.discord</title>
<g id="a_edge.discord&#45;queue"><a xlink:title="edge.discord&#45;queue">
<path fill="none" stroke="#6fd0ac" stroke-width="1.7" d="M795.87,-399.44C809.86,-390.53 822.67,-379.83 832.81,-367 857.65,-335.58 822.65,-307.93 849.81,-278.5 885.71,-239.61 937.56,-217.81 988.58,-205.77"/>
<polygon fill="#6fd0ac" stroke="#6fd0ac" stroke-width="1.7" points="996.07,-204.09 989.05,-209.36 994.26,-204.86 988.34,-206.19 988.26,-205.84 988.19,-205.5 994.11,-204.17 987.47,-202.33 996.07,-204.09"/>
</a>
</g>
<text xml:space="preserve" text-anchor="start" x="857.68" y="-292.75" font-family="Sans-Serif" font-size="10.00" fill="#a5e3cd">O · QUEUE — Discord</text>
<text xml:space="preserve" text-anchor="start" x="870.43" y="-281.5" font-family="Sans-Serif" font-size="10.00" fill="#a5e3cd">health notification</text>
</g>
<!-- actor.operational&#45;persistence&#45;&gt;actor.system&#45;control -->
<g id="edge.persistence&#45;failure" class="edge">
<title>actor.operational&#45;persistence&#45;&gt;actor.system&#45;control</title>
<g id="a_edge.persistence&#45;failure"><a xlink:title="edge.persistence&#45;failure">
<path fill="none" stroke="#ff8a80" stroke-width="1.7" stroke-dasharray="5,2" d="M523.5,-318.37C464.13,-322.33 394.88,-326.94 334.48,-330.97"/>
<polygon fill="#ff8a80" stroke="#ff8a80" stroke-width="1.7" points="326.54,-331.5 334.28,-327.37 328.44,-331.02 334.5,-330.62 334.52,-330.97 334.55,-331.32 328.49,-331.72 334.76,-334.56 326.54,-331.5"/>
</a>
</g>
<text xml:space="preserve" text-anchor="start" x="355.03" y="-343.06" font-family="Sans-Serif" font-size="10.00" fill="#ffc1bb">R · FAILURE — Component</text>
<text xml:space="preserve" text-anchor="start" x="404.53" y="-331.81" font-family="Sans-Serif" font-size="10.00" fill="#ffc1bb">failure</text>
</g>
<!-- actor.operational&#45;persistence&#45;&gt;actor.system&#45;control -->
<g id="edge.persistence&#45;ready&#45;response" class="edge">
<title>actor.operational&#45;persistence&#45;&gt;actor.system&#45;control</title>
<g id="a_edge.persistence&#45;ready&#45;response"><a xlink:title="edge.persistence&#45;ready&#45;response">
<path fill="none" stroke="#8dc5e3" stroke-width="1.7" d="M523.36,-351.33C508.91,-354.46 494.37,-357.12 480.28,-359 433.07,-365.31 381.34,-364.71 334.49,-361.38"/>
<polygon fill="#8dc5e3" stroke="#8dc5e3" stroke-width="1.7" points="326.64,-360.79 334.89,-357.8 328.59,-360.58 334.64,-361.04 334.62,-361.39 334.59,-361.74 328.54,-361.28 334.34,-364.98 326.64,-360.79"/>
</a>
</g>
<text xml:space="preserve" text-anchor="start" x="358.03" y="-378.09" font-family="Sans-Serif" font-size="10.00" fill="#b9ddf0">R · READY — Persistence</text>
<text xml:space="preserve" text-anchor="start" x="396.65" y="-366.84" font-family="Sans-Serif" font-size="10.00" fill="#b9ddf0">readiness</text>
</g>
<!-- actor.operational&#45;persistence&#45;&gt;queue.persistence -->
<g id="edge.persistence&#45;queue" class="edge">
<title>actor.operational&#45;persistence&#45;&gt;queue.persistence</title>
<g id="a_edge.persistence&#45;queue"><a xlink:title="edge.persistence&#45;queue">
<path fill="none" stroke="#6fd0ac" stroke-width="1.7" d="M806.6,-309C863.19,-309 928.97,-309 988.27,-309"/>
<polygon fill="#6fd0ac" stroke="#6fd0ac" stroke-width="1.7" points="996.04,-309 988.04,-312.6 994.11,-309.35 988.04,-309.35 988.04,-309 988.04,-308.65 994.11,-308.65 988.04,-305.4 996.04,-309"/>
</a>
</g>
<text xml:space="preserve" text-anchor="start" x="849.81" y="-323.25" font-family="Sans-Serif" font-size="10.00" fill="#a5e3cd">R · QUEUE — Operational</text>
<text xml:space="preserve" text-anchor="start" x="884.68" y="-312" font-family="Sans-Serif" font-size="10.00" fill="#a5e3cd">audit event</text>
</g>
<!-- actor.system&#45;control&#45;&gt;actor.discord&#45;health -->
<g id="edge.system&#45;health&#45;discord" class="edge">
<title>actor.system&#45;control&#45;&gt;actor.discord&#45;health</title>
<g id="a_edge.system&#45;health&#45;discord"><a xlink:title="edge.system&#45;health&#45;discord">
<path fill="none" stroke="#d7c77b" stroke-width="1.7" stroke-dasharray="1,5" d="M314.66,-383.63C328.22,-387.41 341.86,-390.95 355.03,-394 402.04,-404.87 453.66,-413.98 501.01,-421.24"/>
<polygon fill="#d7c77b" stroke="#d7c77b" stroke-width="1.7" points="508.69,-422.41 500.24,-424.77 506.73,-422.46 500.73,-421.55 500.78,-421.21 500.83,-420.86 506.83,-421.77 501.32,-417.65 508.69,-422.41"/>
</a>
</g>
<text xml:space="preserve" text-anchor="start" x="366.28" y="-431.07" font-family="Sans-Serif" font-size="10.00" fill="#e8dfaf">O · NOTIFY — System</text>
<text xml:space="preserve" text-anchor="start" x="404.53" y="-419.82" font-family="Sans-Serif" font-size="10.00" fill="#e8dfaf">health</text>
</g>
<!-- actor.system&#45;control&#45;&gt;actor.operational&#45;persistence -->
<g id="edge.persistence&#45;ready&#45;request" class="edge">
<title>actor.system&#45;control&#45;&gt;actor.operational&#45;persistence</title>
<g id="a_edge.persistence&#45;ready&#45;request"><a xlink:title="edge.persistence&#45;ready&#45;request">
<path fill="none" stroke="#8dc5e3" stroke-width="1.7" d="M232.92,-298.48C265.21,-273.33 309.77,-243.85 355.03,-230.5 429.8,-208.45 515.81,-234.41 578.08,-262.24"/>
<polygon fill="#8dc5e3" stroke="#8dc5e3" stroke-width="1.7" points="585.21,-265.49 576.43,-265.44 583.31,-265.01 577.78,-262.49 577.93,-262.17 578.07,-261.85 583.6,-264.37 579.42,-258.89 585.21,-265.49"/>
</a>
</g>
<text xml:space="preserve" text-anchor="start" x="364.78" y="-244.75" font-family="Sans-Serif" font-size="10.00" fill="#b9ddf0">R · REQ — Persistence</text>
<text xml:space="preserve" text-anchor="start" x="379.03" y="-233.5" font-family="Sans-Serif" font-size="10.00" fill="#b9ddf0">readiness request</text>
</g>
<!-- actor.system&#45;control&#45;&gt;actor.operational&#45;persistence -->
<g id="edge.system&#45;health&#45;persistence" class="edge">
<title>actor.system&#45;control&#45;&gt;actor.operational&#45;persistence</title>
<g id="a_edge.system&#45;health&#45;persistence"><a xlink:title="edge.system&#45;health&#45;persistence">
<path fill="none" stroke="#8dc5e3" stroke-width="1.7" d="M324.52,-307C334.8,-305.31 345.05,-303.85 355.03,-302.75 406.41,-297.07 462.87,-296.56 513.32,-298.12"/>
<polygon fill="#8dc5e3" stroke="#8dc5e3" stroke-width="1.7" points="521.26,-298.38 513.14,-301.71 519.32,-298.67 513.25,-298.46 513.26,-298.11 513.27,-297.76 519.34,-297.97 513.38,-294.52 521.26,-298.38"/>
</a>
</g>
<text xml:space="preserve" text-anchor="start" x="359.53" y="-305.75" font-family="Sans-Serif" font-size="10.00" fill="#b9ddf0">R · PUB — System health</text>
</g>
<!-- queue.discord&#45;&gt;worker.discord -->
<g id="edge.discord&#45;worker" class="edge">
<title>queue.discord&#45;&gt;worker.discord</title>
<g id="a_edge.discord&#45;worker"><a xlink:title="edge.discord&#45;worker">
<path fill="none" stroke="#6fd0ac" stroke-width="1.7" d="M1321.53,-193C1375.43,-193 1435.72,-193 1490.37,-193"/>
<polygon fill="#6fd0ac" stroke="#6fd0ac" stroke-width="1.7" points="1498.08,-193 1490.08,-196.6 1496.15,-193.35 1490.08,-193.35 1490.08,-193 1490.08,-192.65 1496.15,-192.65 1490.08,-189.4 1498.08,-193"/>
</a>
</g>
<text xml:space="preserve" text-anchor="start" x="1359.96" y="-207.25" font-family="Sans-Serif" font-size="10.00" fill="#a5e3cd">O · QUEUE — Discord</text>
<text xml:space="preserve" text-anchor="start" x="1372.71" y="-196" font-family="Sans-Serif" font-size="10.00" fill="#a5e3cd">health notification</text>
</g>
<!-- queue.persistence&#45;&gt;worker.persistence -->
<g id="edge.queue&#45;worker" class="edge">
<title>queue.persistence&#45;&gt;worker.persistence</title>
<g id="a_edge.queue&#45;worker"><a xlink:title="edge.queue&#45;worker">
<path fill="none" stroke="#6fd0ac" stroke-width="1.7" d="M1321.53,-309C1375.43,-309 1435.72,-309 1490.37,-309"/>
<polygon fill="#6fd0ac" stroke="#6fd0ac" stroke-width="1.7" points="1498.08,-309 1490.08,-312.6 1496.15,-309.35 1490.08,-309.35 1490.08,-309 1490.08,-308.65 1496.15,-308.65 1490.08,-305.4 1498.08,-309"/>
</a>
</g>
<text xml:space="preserve" text-anchor="start" x="1352.09" y="-323.25" font-family="Sans-Serif" font-size="10.00" fill="#a5e3cd">R · QUEUE — Operational</text>
<text xml:space="preserve" text-anchor="start" x="1386.96" y="-312" font-family="Sans-Serif" font-size="10.00" fill="#a5e3cd">audit event</text>
</g>
<!-- worker.discord&#45;&gt;projection.discord -->
<g id="edge.discord&#45;external" class="edge">
<title>worker.discord&#45;&gt;projection.discord</title>
<g id="a_edge.discord&#45;external"><a xlink:title="edge.discord&#45;external">
<path fill="none" stroke="#d7c77b" stroke-width="1.7" stroke-dasharray="1,5" d="M1823.93,-233.74C1835.56,-238.87 1846.84,-244.6 1857.37,-251 1927.14,-293.39 1917.02,-337.97 1985.12,-383 1990.84,-386.78 1996.84,-390.37 2003.01,-393.76"/>
<polygon fill="#d7c77b" stroke="#d7c77b" stroke-width="1.7" points="2009.71,-397.31 2000.95,-396.74 2007.84,-396.71 2002.47,-393.87 2002.64,-393.56 2002.8,-393.25 2008.17,-396.09 2004.32,-390.38 2009.71,-397.31"/>
</a>
</g>
<text xml:space="preserve" text-anchor="start" x="1865.37" y="-383.76" font-family="Sans-Serif" font-size="10.00" fill="#e8dfaf">O · NOTIFY — Discord</text>
<text xml:space="preserve" text-anchor="start" x="1878.49" y="-372.51" font-family="Sans-Serif" font-size="10.00" fill="#e8dfaf">health notification</text>
</g>
<!-- worker.persistence&#45;&gt;store.postgres -->
<g id="edge.worker&#45;postgres" class="edge">
<title>worker.persistence&#45;&gt;store.postgres</title>
<g id="a_edge.worker&#45;postgres"><a xlink:title="edge.worker&#45;postgres">
<path fill="none" stroke="#6fd0ac" stroke-width="1.7" d="M1824.1,-278.13C1836.57,-270.86 1847.96,-261.94 1857.37,-251 1873.91,-231.78 1846.99,-211.98 1865.37,-194.5 1898.03,-163.44 1944.01,-152.15 1988.81,-150.19"/>
<polygon fill="#6fd0ac" stroke="#6fd0ac" stroke-width="1.7" points="1996.58,-149.97 1988.69,-153.79 1994.66,-150.37 1988.59,-150.55 1988.58,-150.2 1988.57,-149.85 1994.64,-149.67 1988.48,-146.6 1996.58,-149.97"/>
</a>
</g>
<text xml:space="preserve" text-anchor="start" x="1880.37" y="-208.75" font-family="Sans-Serif" font-size="10.00" fill="#a5e3cd">R · PERSIST —</text>
<text xml:space="preserve" text-anchor="start" x="1866.49" y="-197.5" font-family="Sans-Serif" font-size="10.00" fill="#a5e3cd">Operational audit event</text>
</g>
<!-- worker.persistence&#45;&gt;actor.operational&#45;persistence -->
<g id="edge.worker&#45;result" class="edge">
<title>worker.persistence&#45;&gt;actor.operational&#45;persistence</title>
<g id="a_edge.worker&#45;result"><a xlink:title="edge.worker&#45;result">
<path fill="none" stroke="#6fd0ac" stroke-width="1.7" d="M1500.11,-342.2C1443.75,-352.29 1379.86,-362.02 1321.09,-367 1172.05,-379.62 1133.52,-380.45 984.56,-367 929.23,-362 869.14,-352.22 816.21,-342.09"/>
<polygon fill="#6fd0ac" stroke="#6fd0ac" stroke-width="1.7" points="808.45,-340.59 816.99,-338.57 810.41,-340.61 816.37,-341.76 816.3,-342.1 816.24,-342.45 810.28,-341.3 815.62,-345.64 808.45,-340.59"/>
</a>
</g>
<text xml:space="preserve" text-anchor="start" x="1097.95" y="-391.03" font-family="Sans-Serif" font-size="10.00" fill="#a5e3cd">R · RESULT — Persistence</text>
<text xml:space="preserve" text-anchor="start" x="1131.7" y="-379.78" font-family="Sans-Serif" font-size="10.00" fill="#a5e3cd">worker result</text>
</g>
<!-- store.postgres -->
<g id="store.postgres" class="node">
<title>store.postgres</title>
<g id="a_store.postgres"><a xlink:title="store.postgres">
<path fill="#2b2017" stroke="#f0a45d" stroke-width="1.5" d="M2275.15,-217.23C2275.15,-223.02 2213.29,-227.72 2137.13,-227.72 2060.98,-227.72 1999.12,-223.02 1999.12,-217.23 1999.12,-217.23 1999.12,-122.77 1999.12,-122.77 1999.12,-116.98 2060.98,-112.28 2137.13,-112.28 2213.29,-112.28 2275.15,-116.98 2275.15,-122.77 2275.15,-122.77 2275.15,-217.23 2275.15,-217.23"/>
<path fill="none" stroke="#f0a45d" stroke-width="1.5" d="M2275.15,-217.23C2275.15,-211.44 2213.29,-206.73 2137.13,-206.73 2060.98,-206.73 1999.12,-211.44 1999.12,-217.23"/>
<polygon fill="#f0a45d" stroke="#f0a45d" points="2007.76,-181.75 2007.76,-181.75 2194.63,-181.75 2194.63,-181.75 2007.76,-181.75"/>
<polygon fill="#f0a45d" stroke="#f0a45d" points="2194.63,-181.75 2194.63,-181.75 2266.51,-181.75 2266.51,-181.75 2194.63,-181.75"/>
<text xml:space="preserve" text-anchor="start" x="2010.76" y="-189.6" font-family="Helvetica,sans-Serif" font-weight="bold" font-size="12.00" fill="#fff4e8">PostgreSQL Operational Audit</text>
<polygon fill="#5a3419" stroke="none" points="2197.63,-184.75 2197.63,-202.5 2263.51,-202.5 2263.51,-184.75 2197.63,-184.75"/>
<polygon fill="none" stroke="#f0a45d" points="2197.63,-184.75 2197.63,-202.5 2263.51,-202.5 2263.51,-184.75 2197.63,-184.75"/>
<text xml:space="preserve" text-anchor="start" x="2206.2" y="-190.95" font-family="Helvetica,sans-Serif" font-weight="bold" font-size="9.00" fill="#fff4e8">EXTERNAL</text>
<text xml:space="preserve" text-anchor="start" x="2010.76" y="-171.25" font-family="Helvetica,sans-Serif" font-size="9.00" fill="#c7d2dd">store.postgres</text>
<text xml:space="preserve" text-anchor="start" x="2010.76" y="-155.5" font-family="Helvetica,sans-Serif" font-size="9.00" fill="#fff4e8">IMPLEMENTATION: EXTERNAL · COMPOSITION: EXTERNAL</text>
<text xml:space="preserve" text-anchor="start" x="2010.76" y="-139.75" font-family="Helvetica,sans-Serif" font-size="9.00" fill="#fff4e8">PROFILE: NOT_APPLICABLE · ORDER NOT APPLICABLE</text>
</a>
</g>
</g>
<!-- actor.session&#45;state -->
<g id="actor.session&#45;state" class="node">
<title>actor.session&#45;state</title>
<g id="a_actor.session&#45;state"><a xlink:title="actor.session&#45;state">
<path fill="#102b28" stroke="#43d9ae" stroke-width="1.5" d="M312.03,-125.98C312.03,-125.98 54,-125.98 54,-125.98 48,-125.98 42,-119.98 42,-113.98 42,-113.98 42,-54.02 42,-54.02 42,-48.02 48,-42.02 54,-42.02 54,-42.02 312.03,-42.02 312.03,-42.02 318.03,-42.02 324.03,-48.02 324.03,-54.02 324.03,-54.02 324.03,-113.98 324.03,-113.98 324.03,-119.98 318.03,-125.98 312.03,-125.98"/>
<polygon fill="#43d9ae" stroke="#43d9ae" points="50.64,-95.75 50.64,-95.75 196.26,-95.75 196.26,-95.75 50.64,-95.75"/>
<polygon fill="#43d9ae" stroke="#43d9ae" points="196.26,-95.75 196.26,-95.75 315.39,-95.75 315.39,-95.75 196.26,-95.75"/>
<text xml:space="preserve" text-anchor="start" x="53.64" y="-103.6" font-family="Helvetica,sans-Serif" font-weight="bold" font-size="12.00" fill="#ecfff8">Session State</text>
<polygon fill="#164c3e" stroke="none" points="199.26,-98.75 199.26,-116.5 312.39,-116.5 312.39,-98.75 199.26,-98.75"/>
<polygon fill="none" stroke="#43d9ae" points="199.26,-98.75 199.26,-116.5 312.39,-116.5 312.39,-98.75 199.26,-98.75"/>
<text xml:space="preserve" text-anchor="start" x="233.7" y="-104.95" font-family="Helvetica,sans-Serif" font-weight="bold" font-size="9.00" fill="#ecfff8">ENABLED</text>
<text xml:space="preserve" text-anchor="start" x="53.64" y="-85.25" font-family="Helvetica,sans-Serif" font-size="9.00" fill="#c7d2dd">actor.session&#45;state</text>
<text xml:space="preserve" text-anchor="start" x="53.64" y="-69.5" font-family="Helvetica,sans-Serif" font-size="9.00" fill="#ecfff8">IMPLEMENTATION: IMPLEMENTED · COMPOSITION: ALWAYS</text>
<text xml:space="preserve" text-anchor="start" x="53.64" y="-53.75" font-family="Helvetica,sans-Serif" font-size="9.00" fill="#ecfff8">PROFILE: ENABLED · ORDER 2</text>
</a>
</g>
</g>
<!-- actor.discord&#45;health -->
<g id="actor.discord&#45;health" class="node">
<title>actor.discord&#45;health</title>
<g id="a_actor.discord&#45;health"><a xlink:title="actor.discord&#45;health">
<path fill="#102b28" stroke="#43d9ae" stroke-width="1.5" d="M806.81,-483.98C806.81,-483.98 523.28,-483.98 523.28,-483.98 517.28,-483.98 511.28,-477.98 511.28,-471.98 511.28,-471.98 511.28,-412.02 511.28,-412.02 511.28,-406.02 517.28,-400.02 523.28,-400.02 523.28,-400.02 806.81,-400.02 806.81,-400.02 812.81,-400.02 818.81,-406.02 818.81,-412.02 818.81,-412.02 818.81,-471.98 818.81,-471.98 818.81,-477.98 812.81,-483.98 806.81,-483.98"/>
<polygon fill="#43d9ae" stroke="#43d9ae" points="519.92,-453.75 519.92,-453.75 712.04,-453.75 712.04,-453.75 519.92,-453.75"/>
<polygon fill="#43d9ae" stroke="#43d9ae" points="712.04,-453.75 712.04,-453.75 810.17,-453.75 810.17,-453.75 712.04,-453.75"/>
<text xml:space="preserve" text-anchor="start" x="522.92" y="-461.6" font-family="Helvetica,sans-Serif" font-weight="bold" font-size="12.00" fill="#ecfff8">Discord Health Projection</text>
<polygon fill="#164c3e" stroke="none" points="715.04,-456.75 715.04,-474.5 807.17,-474.5 807.17,-456.75 715.04,-456.75"/>
<polygon fill="none" stroke="#43d9ae" points="715.04,-456.75 715.04,-474.5 807.17,-474.5 807.17,-456.75 715.04,-456.75"/>
<text xml:space="preserve" text-anchor="start" x="738.98" y="-462.95" font-family="Helvetica,sans-Serif" font-weight="bold" font-size="9.00" fill="#ecfff8">ENABLED</text>
<text xml:space="preserve" text-anchor="start" x="522.92" y="-443.25" font-family="Helvetica,sans-Serif" font-size="9.00" fill="#c7d2dd">actor.discord&#45;health</text>
<text xml:space="preserve" text-anchor="start" x="522.92" y="-427.5" font-family="Helvetica,sans-Serif" font-size="9.00" fill="#ecfff8">IMPLEMENTATION: IMPLEMENTED · COMPOSITION: CONDITIONAL</text>
<text xml:space="preserve" text-anchor="start" x="522.92" y="-411.75" font-family="Helvetica,sans-Serif" font-size="9.00" fill="#ecfff8">PROFILE: ENABLED · ORDER 4</text>
</a>
</g>
</g>
<!-- actor.operational&#45;persistence -->
<g id="actor.operational&#45;persistence" class="node">
<title>actor.operational&#45;persistence</title>
<g id="a_actor.operational&#45;persistence"><a xlink:title="actor.operational&#45;persistence">
<path fill="#102b28" stroke="#43d9ae" stroke-width="1.5" d="M794.06,-350.98C794.06,-350.98 536.03,-350.98 536.03,-350.98 530.03,-350.98 524.03,-344.98 524.03,-338.98 524.03,-338.98 524.03,-279.02 524.03,-279.02 524.03,-273.02 530.03,-267.02 536.03,-267.02 536.03,-267.02 794.06,-267.02 794.06,-267.02 800.06,-267.02 806.06,-273.02 806.06,-279.02 806.06,-279.02 806.06,-338.98 806.06,-338.98 806.06,-344.98 800.06,-350.98 794.06,-350.98"/>
<polygon fill="#43d9ae" stroke="#43d9ae" points="532.67,-320.75 532.67,-320.75 707.17,-320.75 707.17,-320.75 532.67,-320.75"/>
<polygon fill="#43d9ae" stroke="#43d9ae" points="707.17,-320.75 707.17,-320.75 797.42,-320.75 797.42,-320.75 707.17,-320.75"/>
<text xml:space="preserve" text-anchor="start" x="535.67" y="-328.6" font-family="Helvetica,sans-Serif" font-weight="bold" font-size="12.00" fill="#ecfff8">Operational Persistence</text>
<polygon fill="#164c3e" stroke="none" points="710.17,-323.75 710.17,-341.5 794.42,-341.5 794.42,-323.75 710.17,-323.75"/>
<polygon fill="none" stroke="#43d9ae" points="710.17,-323.75 710.17,-341.5 794.42,-341.5 794.42,-323.75 710.17,-323.75"/>
<text xml:space="preserve" text-anchor="start" x="730.17" y="-329.95" font-family="Helvetica,sans-Serif" font-weight="bold" font-size="9.00" fill="#ecfff8">ENABLED</text>
<text xml:space="preserve" text-anchor="start" x="535.67" y="-310.25" font-family="Helvetica,sans-Serif" font-size="9.00" fill="#c7d2dd">actor.operational&#45;persistence</text>
<text xml:space="preserve" text-anchor="start" x="535.67" y="-294.5" font-family="Helvetica,sans-Serif" font-size="9.00" fill="#ecfff8">IMPLEMENTATION: IMPLEMENTED · COMPOSITION: ALWAYS</text>
<text xml:space="preserve" text-anchor="start" x="535.67" y="-278.75" font-family="Helvetica,sans-Serif" font-size="9.00" fill="#ecfff8">PROFILE: ENABLED · ORDER 10</text>
</a>
</g>
</g>
<!-- actor.system&#45;control -->
<g id="actor.system&#45;control" class="node">
<title>actor.system&#45;control</title>
<g id="a_actor.system&#45;control"><a xlink:title="actor.system&#45;control">
<path fill="#102b28" stroke="#43d9ae" stroke-width="1.5" d="M312.03,-382.98C312.03,-382.98 54,-382.98 54,-382.98 48,-382.98 42,-376.98 42,-370.98 42,-370.98 42,-311.02 42,-311.02 42,-305.02 48,-299.02 54,-299.02 54,-299.02 312.03,-299.02 312.03,-299.02 318.03,-299.02 324.03,-305.02 324.03,-311.02 324.03,-311.02 324.03,-370.98 324.03,-370.98 324.03,-376.98 318.03,-382.98 312.03,-382.98"/>
<polygon fill="#43d9ae" stroke="#43d9ae" points="50.64,-352.75 50.64,-352.75 201.14,-352.75 201.14,-352.75 50.64,-352.75"/>
<polygon fill="#43d9ae" stroke="#43d9ae" points="201.14,-352.75 201.14,-352.75 315.39,-352.75 315.39,-352.75 201.14,-352.75"/>
<text xml:space="preserve" text-anchor="start" x="53.64" y="-360.6" font-family="Helvetica,sans-Serif" font-weight="bold" font-size="12.00" fill="#ecfff8">System Control</text>
<polygon fill="#164c3e" stroke="none" points="204.14,-355.75 204.14,-373.5 312.39,-373.5 312.39,-355.75 204.14,-355.75"/>
<polygon fill="none" stroke="#43d9ae" points="204.14,-355.75 204.14,-373.5 312.39,-373.5 312.39,-355.75 204.14,-355.75"/>
<text xml:space="preserve" text-anchor="start" x="236.14" y="-361.95" font-family="Helvetica,sans-Serif" font-weight="bold" font-size="9.00" fill="#ecfff8">ENABLED</text>
<text xml:space="preserve" text-anchor="start" x="53.64" y="-342.25" font-family="Helvetica,sans-Serif" font-size="9.00" fill="#c7d2dd">actor.system&#45;control</text>
<text xml:space="preserve" text-anchor="start" x="53.64" y="-326.5" font-family="Helvetica,sans-Serif" font-size="9.00" fill="#ecfff8">IMPLEMENTATION: IMPLEMENTED · COMPOSITION: ALWAYS</text>
<text xml:space="preserve" text-anchor="start" x="53.64" y="-310.75" font-family="Helvetica,sans-Serif" font-size="9.00" fill="#ecfff8">PROFILE: ENABLED · ORDER 1</text>
</a>
</g>
</g>
<!-- queue.discord -->
<g id="queue.discord" class="node">
<title>queue.discord</title>
<g id="a_queue.discord"><a xlink:title="queue.discord">
<polygon fill="#17243a" stroke="#78a9f5" stroke-width="1.5" points="1321.09,-234.98 998.56,-234.98 998.56,-230.98 994.56,-230.98 994.56,-226.98 998.56,-226.98 998.56,-159.02 994.56,-159.02 994.56,-155.02 998.56,-155.02 998.56,-151.02 1321.09,-151.02 1321.09,-234.98"/>
<polyline fill="none" stroke="#78a9f5" stroke-width="1.5" points="998.56,-230.98 1002.56,-230.98 1002.56,-226.98 998.56,-226.98"/>
<polyline fill="none" stroke="#78a9f5" stroke-width="1.5" points="998.56,-159.02 1002.56,-159.02 1002.56,-155.02 998.56,-155.02"/>
<polygon fill="#78a9f5" stroke="#78a9f5" points="1007.2,-204.75 1007.2,-204.75 1201.2,-204.75 1201.2,-204.75 1007.2,-204.75"/>
<polygon fill="#78a9f5" stroke="#78a9f5" points="1201.2,-204.75 1201.2,-204.75 1312.45,-204.75 1312.45,-204.75 1201.2,-204.75"/>
<text xml:space="preserve" text-anchor="start" x="1010.2" y="-212.6" font-family="Helvetica,sans-Serif" font-weight="bold" font-size="12.00" fill="#eef5ff">Discord Delivery Queue</text>
<polygon fill="#164c3e" stroke="none" points="1204.2,-207.75 1204.2,-225.5 1309.45,-225.5 1309.45,-207.75 1204.2,-207.75"/>
<polygon fill="none" stroke="#78a9f5" points="1204.2,-207.75 1204.2,-225.5 1309.45,-225.5 1309.45,-207.75 1204.2,-207.75"/>
<text xml:space="preserve" text-anchor="start" x="1234.7" y="-213.95" font-family="Helvetica,sans-Serif" font-weight="bold" font-size="9.00" fill="#eef5ff">ENABLED</text>
<text xml:space="preserve" text-anchor="start" x="1010.2" y="-194.25" font-family="Helvetica,sans-Serif" font-size="9.00" fill="#c7d2dd">queue.discord</text>
<text xml:space="preserve" text-anchor="start" x="1010.2" y="-178.5" font-family="Helvetica,sans-Serif" font-size="9.00" fill="#eef5ff">IMPLEMENTATION: IMPLEMENTED · COMPOSITION: NOT_COMPOSED</text>
<text xml:space="preserve" text-anchor="start" x="1010.2" y="-162.75" font-family="Helvetica,sans-Serif" font-size="9.00" fill="#eef5ff">PROFILE: ENABLED · ORDER NOT APPLICABLE</text>
</a>
</g>
</g>
<!-- queue.persistence -->
<g id="queue.persistence" class="node">
<title>queue.persistence</title>
<g id="a_queue.persistence"><a xlink:title="queue.persistence">
<polygon fill="#17243a" stroke="#78a9f5" stroke-width="1.5" points="1321.09,-350.98 998.56,-350.98 998.56,-346.98 994.56,-346.98 994.56,-342.98 998.56,-342.98 998.56,-275.02 994.56,-275.02 994.56,-271.02 998.56,-271.02 998.56,-267.02 1321.09,-267.02 1321.09,-350.98"/>
<polyline fill="none" stroke="#78a9f5" stroke-width="1.5" points="998.56,-346.98 1002.56,-346.98 1002.56,-342.98 998.56,-342.98"/>
<polyline fill="none" stroke="#78a9f5" stroke-width="1.5" points="998.56,-275.02 1002.56,-275.02 1002.56,-271.02 998.56,-271.02"/>
<polygon fill="#78a9f5" stroke="#78a9f5" points="1007.2,-320.75 1007.2,-320.75 1219.57,-320.75 1219.57,-320.75 1007.2,-320.75"/>
<polygon fill="#78a9f5" stroke="#78a9f5" points="1219.57,-320.75 1219.57,-320.75 1312.45,-320.75 1312.45,-320.75 1219.57,-320.75"/>
<text xml:space="preserve" text-anchor="start" x="1010.2" y="-328.6" font-family="Helvetica,sans-Serif" font-weight="bold" font-size="12.00" fill="#eef5ff">Persistence Admission Queue</text>
<polygon fill="#164c3e" stroke="none" points="1222.57,-323.75 1222.57,-341.5 1309.45,-341.5 1309.45,-323.75 1222.57,-323.75"/>
<polygon fill="none" stroke="#78a9f5" points="1222.57,-323.75 1222.57,-341.5 1309.45,-341.5 1309.45,-323.75 1222.57,-323.75"/>
<text xml:space="preserve" text-anchor="start" x="1243.89" y="-329.95" font-family="Helvetica,sans-Serif" font-weight="bold" font-size="9.00" fill="#eef5ff">ENABLED</text>
<text xml:space="preserve" text-anchor="start" x="1010.2" y="-310.25" font-family="Helvetica,sans-Serif" font-size="9.00" fill="#c7d2dd">queue.persistence</text>
<text xml:space="preserve" text-anchor="start" x="1010.2" y="-294.5" font-family="Helvetica,sans-Serif" font-size="9.00" fill="#eef5ff">IMPLEMENTATION: IMPLEMENTED · COMPOSITION: NOT_COMPOSED</text>
<text xml:space="preserve" text-anchor="start" x="1010.2" y="-278.75" font-family="Helvetica,sans-Serif" font-size="9.00" fill="#eef5ff">PROFILE: ENABLED · ORDER NOT APPLICABLE</text>
</a>
</g>
</g>
<!-- worker.discord -->
<g id="worker.discord" class="node">
<title>worker.discord</title>
<g id="a_worker.discord"><a xlink:title="worker.discord">
<polygon fill="#17243a" stroke="#78a9f5" stroke-width="1.5" points="1823.37,-234.98 1500.84,-234.98 1500.84,-230.98 1496.84,-230.98 1496.84,-226.98 1500.84,-226.98 1500.84,-159.02 1496.84,-159.02 1496.84,-155.02 1500.84,-155.02 1500.84,-151.02 1823.37,-151.02 1823.37,-234.98"/>
<polyline fill="none" stroke="#78a9f5" stroke-width="1.5" points="1500.84,-230.98 1504.84,-230.98 1504.84,-226.98 1500.84,-226.98"/>
<polyline fill="none" stroke="#78a9f5" stroke-width="1.5" points="1500.84,-159.02 1504.84,-159.02 1504.84,-155.02 1500.84,-155.02"/>
<polygon fill="#78a9f5" stroke="#78a9f5" points="1509.48,-204.75 1509.48,-204.75 1705.35,-204.75 1705.35,-204.75 1509.48,-204.75"/>
<polygon fill="#78a9f5" stroke="#78a9f5" points="1705.35,-204.75 1705.35,-204.75 1814.73,-204.75 1814.73,-204.75 1705.35,-204.75"/>
<text xml:space="preserve" text-anchor="start" x="1512.48" y="-212.6" font-family="Helvetica,sans-Serif" font-weight="bold" font-size="12.00" fill="#eef5ff">Discord Delivery Worker</text>
<polygon fill="#164c3e" stroke="none" points="1708.35,-207.75 1708.35,-225.5 1811.73,-225.5 1811.73,-207.75 1708.35,-207.75"/>
<polygon fill="none" stroke="#78a9f5" points="1708.35,-207.75 1708.35,-225.5 1811.73,-225.5 1811.73,-207.75 1708.35,-207.75"/>
<text xml:space="preserve" text-anchor="start" x="1737.92" y="-213.95" font-family="Helvetica,sans-Serif" font-weight="bold" font-size="9.00" fill="#eef5ff">ENABLED</text>
<text xml:space="preserve" text-anchor="start" x="1512.48" y="-194.25" font-family="Helvetica,sans-Serif" font-size="9.00" fill="#c7d2dd">worker.discord</text>
<text xml:space="preserve" text-anchor="start" x="1512.48" y="-178.5" font-family="Helvetica,sans-Serif" font-size="9.00" fill="#eef5ff">IMPLEMENTATION: IMPLEMENTED · COMPOSITION: NOT_COMPOSED</text>
<text xml:space="preserve" text-anchor="start" x="1512.48" y="-162.75" font-family="Helvetica,sans-Serif" font-size="9.00" fill="#eef5ff">PROFILE: ENABLED · ORDER NOT APPLICABLE</text>
</a>
</g>
</g>
<!-- worker.persistence -->
<g id="worker.persistence" class="node">
<title>worker.persistence</title>
<g id="a_worker.persistence"><a xlink:title="worker.persistence">
<polygon fill="#17243a" stroke="#78a9f5" stroke-width="1.5" points="1823.37,-350.98 1500.84,-350.98 1500.84,-346.98 1496.84,-346.98 1496.84,-342.98 1500.84,-342.98 1500.84,-275.02 1496.84,-275.02 1496.84,-271.02 1500.84,-271.02 1500.84,-267.02 1823.37,-267.02 1823.37,-350.98"/>
<polyline fill="none" stroke="#78a9f5" stroke-width="1.5" points="1500.84,-346.98 1504.84,-346.98 1504.84,-342.98 1500.84,-342.98"/>
<polyline fill="none" stroke="#78a9f5" stroke-width="1.5" points="1500.84,-275.02 1504.84,-275.02 1504.84,-271.02 1500.84,-271.02"/>
<polygon fill="#78a9f5" stroke="#78a9f5" points="1509.48,-320.75 1509.48,-320.75 1710.23,-320.75 1710.23,-320.75 1509.48,-320.75"/>
<polygon fill="#78a9f5" stroke="#78a9f5" points="1710.23,-320.75 1710.23,-320.75 1814.73,-320.75 1814.73,-320.75 1710.23,-320.75"/>
<text xml:space="preserve" text-anchor="start" x="1512.48" y="-328.6" font-family="Helvetica,sans-Serif" font-weight="bold" font-size="12.00" fill="#eef5ff">Persistence Writer Worker</text>
<polygon fill="#164c3e" stroke="none" points="1713.23,-323.75 1713.23,-341.5 1811.73,-341.5 1811.73,-323.75 1713.23,-323.75"/>
<polygon fill="none" stroke="#78a9f5" points="1713.23,-323.75 1713.23,-341.5 1811.73,-341.5 1811.73,-323.75 1713.23,-323.75"/>
<text xml:space="preserve" text-anchor="start" x="1740.35" y="-329.95" font-family="Helvetica,sans-Serif" font-weight="bold" font-size="9.00" fill="#eef5ff">ENABLED</text>
<text xml:space="preserve" text-anchor="start" x="1512.48" y="-310.25" font-family="Helvetica,sans-Serif" font-size="9.00" fill="#c7d2dd">worker.persistence</text>
<text xml:space="preserve" text-anchor="start" x="1512.48" y="-294.5" font-family="Helvetica,sans-Serif" font-size="9.00" fill="#eef5ff">IMPLEMENTATION: IMPLEMENTED · COMPOSITION: NOT_COMPOSED</text>
<text xml:space="preserve" text-anchor="start" x="1512.48" y="-278.75" font-family="Helvetica,sans-Serif" font-size="9.00" fill="#eef5ff">PROFILE: ENABLED · ORDER NOT APPLICABLE</text>
</a>
</g>
</g>
<!-- operator.markeitect -->
<g id="operator.markeitect" class="node">
<title>operator.markeitect</title>
<g id="a_operator.markeitect"><a xlink:title="operator.markeitect">
<polygon fill="#2b2017" stroke="#f0a45d" stroke-width="1.5" points="2275.15,-366.98 2011.12,-366.98 2011.12,-370.98 1999.12,-370.98 1999.12,-283.02 2275.15,-283.02 2275.15,-366.98"/>
<polyline fill="none" stroke="#f0a45d" stroke-width="1.5" points="1999.12,-366.98 2011.12,-366.98"/>
<polygon fill="#f0a45d" stroke="#f0a45d" points="2007.76,-336.75 2007.76,-336.75 2167.63,-336.75 2167.63,-336.75 2007.76,-336.75"/>
<polygon fill="#f0a45d" stroke="#f0a45d" points="2167.63,-336.75 2167.63,-336.75 2266.51,-336.75 2266.51,-336.75 2167.63,-336.75"/>
<text xml:space="preserve" text-anchor="start" x="2010.76" y="-344.6" font-family="Helvetica,sans-Serif" font-weight="bold" font-size="12.00" fill="#fff4e8">Markeitect / Operator</text>
<polygon fill="#5a3419" stroke="none" points="2170.63,-339.75 2170.63,-357.5 2263.51,-357.5 2263.51,-339.75 2170.63,-339.75"/>
<polygon fill="none" stroke="#f0a45d" points="2170.63,-339.75 2170.63,-357.5 2263.51,-357.5 2263.51,-339.75 2170.63,-339.75"/>
<text xml:space="preserve" text-anchor="start" x="2192.7" y="-345.95" font-family="Helvetica,sans-Serif" font-weight="bold" font-size="9.00" fill="#fff4e8">EXTERNAL</text>
<text xml:space="preserve" text-anchor="start" x="2010.76" y="-326.25" font-family="Helvetica,sans-Serif" font-size="9.00" fill="#c7d2dd">operator.markeitect</text>
<text xml:space="preserve" text-anchor="start" x="2010.76" y="-310.5" font-family="Helvetica,sans-Serif" font-size="9.00" fill="#fff4e8">IMPLEMENTATION: EXTERNAL · COMPOSITION: EXTERNAL</text>
<text xml:space="preserve" text-anchor="start" x="2010.76" y="-294.75" font-family="Helvetica,sans-Serif" font-size="9.00" fill="#fff4e8">PROFILE: NOT_APPLICABLE · ORDER NOT APPLICABLE</text>
</a>
</g>
</g>
<!-- projection.discord -->
<g id="projection.discord" class="node">
<title>projection.discord</title>
<g id="a_projection.discord"><a xlink:title="projection.discord">
<polygon fill="#2b2017" stroke="#f0a45d" stroke-width="1.5" points="2269.15,-482.98 1999.12,-482.98 1999.12,-399.02 2275.15,-399.02 2275.15,-476.98 2269.15,-482.98"/>
<polyline fill="none" stroke="#f0a45d" stroke-width="1.5" points="2269.15,-482.98 2269.15,-476.98"/>
<polyline fill="none" stroke="#f0a45d" stroke-width="1.5" points="2275.15,-476.98 2269.15,-476.98"/>
<polygon fill="#f0a45d" stroke="#f0a45d" points="2007.76,-452.75 2007.76,-452.75 2131.26,-452.75 2131.26,-452.75 2007.76,-452.75"/>
<polygon fill="#f0a45d" stroke="#f0a45d" points="2131.26,-452.75 2131.26,-452.75 2266.51,-452.75 2266.51,-452.75 2131.26,-452.75"/>
<text xml:space="preserve" text-anchor="start" x="2010.76" y="-460.6" font-family="Helvetica,sans-Serif" font-weight="bold" font-size="12.00" fill="#fff4e8">Discord</text>
<polygon fill="#5a3419" stroke="none" points="2134.26,-455.75 2134.26,-473.5 2263.51,-473.5 2263.51,-455.75 2134.26,-455.75"/>
<polygon fill="none" stroke="#f0a45d" points="2134.26,-455.75 2134.26,-473.5 2263.51,-473.5 2263.51,-455.75 2134.26,-455.75"/>
<text xml:space="preserve" text-anchor="start" x="2174.51" y="-461.95" font-family="Helvetica,sans-Serif" font-weight="bold" font-size="9.00" fill="#fff4e8">EXTERNAL</text>
<text xml:space="preserve" text-anchor="start" x="2010.76" y="-442.25" font-family="Helvetica,sans-Serif" font-size="9.00" fill="#c7d2dd">projection.discord</text>
<text xml:space="preserve" text-anchor="start" x="2010.76" y="-426.5" font-family="Helvetica,sans-Serif" font-size="9.00" fill="#fff4e8">IMPLEMENTATION: EXTERNAL · COMPOSITION: EXTERNAL</text>
<text xml:space="preserve" text-anchor="start" x="2010.76" y="-410.75" font-family="Helvetica,sans-Serif" font-size="9.00" fill="#fff4e8">PROFILE: NOT_APPLICABLE · ORDER NOT APPLICABLE</text>
</a>
</g>
</g>
</g>
</svg>
